#N canvas 0 0 1024 726 10;
#X obj 267 100 notein;
#X msg 34 184 clear;
#X msg 400 138 bang;
#X obj 79 409 qlist;
#X obj 408 102 oneshot;
#X msg 68 273 bang;
#X obj 44 647 noteout;
#X obj 148 198 stripnote;
#X obj 148 222 pack f f;
#X msg 191 303 add \$1 \$2;
#X obj 193 535 qlist;
#X obj 383 279 moses 0.01;
#X msg 328 303 add \$1;
#X msg 122 509 next;
#X obj 34 674 bng 15 250 50 0 empty empty empty 17 7 0 10 -262144 -1
-1;
#X obj 106 485 bng 15 250 50 0 empty empty empty 17 7 0 10 -262144
-1 -1;
#X msg 128 649 clear;
#X obj 56 529 unpack f f;
#X floatatom 193 559 5 0 0 0 - - -;
#X obj 427 224 realtime;
#X obj 427 178 counter;
#X obj 427 202 sel 0;
#X obj 562 89 bng 15 250 50 0 empty empty empty 17 7 0 10 -262144 -1
-1;
#X obj 68 74 bng 15 250 50 0 empty empty empty 17 7 0 10 -262144 -1
-1;
#X floatatom 502 257 5 0 0 0 - - -;
#X obj 106 273 metro;
#X obj 493 177 oneshot;
#X msg 493 101 clear;
#X msg 106 214 0;
#X obj 181 16 bng 30 250 50 0 empty empty empty 17 7 0 10 -258113 -1
-1;
#X obj 45 127 bng 15 250 50 0 empty empty empty 17 7 0 10 -262144 -1
-1;
#X obj 145 16 bng 30 250 50 0 empty empty empty 17 7 0 10 -4034 -1
-1;
#X obj 108 16 bng 30 250 50 0 empty empty empty 17 7 0 10 -257985 -1
-1;
#X obj 83 233 bng 15 250 50 0 empty empty empty 17 7 0 10 -262144 -1
-1;
#X msg 124 481 rewind;
#X obj 115 346 spigot;
#X msg 264 303 0;
#X msg 295 303 1;
#X obj 191 343 spigot;
#X obj 262 343 spigot;
#X obj 245 154 Borax - - - - - - -;
#X obj 459 356 qlist;
#X msg 431 304 add \$1;
#X msg 526 318 clear;
#X obj 266 666 bng 15 250 50 0 empty empty empty 17 7 0 10 -262144
-1 -1;
#X msg 582 148 0;
#X msg 580 179 1;
#X obj 493 207 spigot;
#X msg 584 317 rewind \, next;
#X obj 103 -9 inlet;
#X obj 144 -9 inlet;
#X obj 184 -9 inlet;
#X obj 662 341 inlet;
#X obj 627 271 inlet;
#X msg 368 467 clear;
#X obj 327 374 inlet;
#X obj 327 396 bng 30 250 50 0 empty empty empty 17 7 0 10 -232576
-1 -1;
#X msg 233 475 rewind;
#X obj 288 373 inlet;
#X obj 288 397 bng 30 250 50 0 empty empty empty 17 7 0 10 -232576
-1 -1;
#X obj 550 421 inlet;
#X msg 550 441 set tempo \$1 \, bang;
#X obj 42 394 inlet;
#X obj 107 461 tgl 15 0 empty empty empty 17 7 0 10 -262144 -1 -1 1
1;
#X obj 47 501 spigot 1;
#X msg 173 380 print;
#X obj 297 250 spigot 1;
#X msg 88 311 add2 \$1 note_\$2;
#X obj 59 553 +;
#X floatatom 50 580 5 0 0 0 - - -;
#X floatatom 193 581 5 0 0 0 - - -;
#X obj 328 645 * -1;
#X floatatom 328 668 5 0 0 0 - - -;
#X obj 389 585 inlet;
#X obj -18 405 loadbang;
#X obj 549 273 outlet;
#X obj 318 616 z-musical.transpose;
#X obj 150 632 z-musical.closest.note;
#X obj 138 560 gate 2;
#X obj 182 502 tgl 15 0 empty empty empty 17 7 0 10 -262144 -1 -1 1
1;
#X obj 138 539 + 1;
#X obj 498 573 inlet;
#X obj 429 585 inlet;
#X obj 10 565 1;
#X msg 685 483 read C:/Documents and Settings/Dell/Desktop/monome/CANON/HELIX/New Folder (2)/bend_dur_1
;
#X msg 685 418 read C:/Documents and Settings/Dell/Desktop/monome/CANON/HELIX/New Folder (2)/bend_len_1
;
#X msg 683 550 read C:/Documents and Settings/Dell/Desktop/monome/CANON/HELIX/New Folder (2)/bend_1
;
#X msg 692 294 write C:/Documents and Settings/Dell/Desktop/monome/CANON/HELIX/New Folder (2)/bend_dur_1
;
#X msg 711 172 write C:/Documents and Settings/Dell/Desktop/monome/CANON/HELIX/New Folder (2)/bend_1
;
#X msg 817 107 write C:/Documents and Settings/Dell/Desktop/monome/CANON/HELIX/New Folder (2)/bend_len_1
;
#X obj 43 460 r note_\$1;
#X obj 247 231 \$1;
#X obj 196 255 pack f f;
#X msg 278 187 bang;
#X obj 662 368 s rd_\$0;
#X obj 627 296 s wr_\$0;
#X obj 884 354 pack s f;
#X obj 933 330 \$1;
#X obj 960 330 loadbang;
#X obj 877 330 r rd_\$0;
#X msg 686 86 set write \$1_len_\$2 \, bang;
#X msg 708 267 set write \$1_dur_\$2 \, bang;
#X msg 685 393 set read \$1_len_\$2 \, bang;
#X msg 685 457 set read \$1_dur_\$2 \, bang;
#X msg 683 523 set read \$1_\$2 \, bang;
#X obj 712 346 symbol2list _;
#X obj 712 368 unpack s f;
#X obj 859 32 pack s f;
#X obj 908 8 \$1;
#X obj 935 8 loadbang;
#X obj 687 24 symbol2list _;
#X obj 687 46 unpack s f;
#X obj 852 7 r wr_\$0;
#X msg 740 149 set write \$1_\$2 \, bang;
#X obj 588 582 bendin;
#X obj 535 661 realtime;
#X obj 553 636 t b b;
#X obj 520 746 qlist;
#X msg 462 709 clear;
#X msg 508 685 rewind;
#X msg 556 685 bang;
#X obj 616 707 pack f f f;
#X obj 612 639 loadbang;
#X obj 612 659 \$1;
#X msg 616 729 add \$3 bend_\$2 \$1;
#X obj 498 597 t b b;
#X obj 469 611 bng 15 250 50 0 empty empty empty 17 7 0 10 -262144
-1 -1;
#X obj 780 653 r bend_\$1;
#X obj 462 687 pack f;
#X obj 493 654 \$1;
#X msg 292 704 add 0 bend_\$1 0;
#X msg 752 608 read C:/Documents and Settings/Dell/Desktop/monome/CANON/HELIX/New Folder (2)/bend_pit_1
;
#X msg 682 587 set read \$1_pit_\$2 \, bang;
#X msg 716 233 write C:/Documents and Settings/Dell/Desktop/monome/CANON/HELIX/New Folder (2)/bend_pit_1
;
#X msg 716 206 set write \$1_pit_\$2 \, bang;
#X obj 690 696 bendout;
#X msg 397 729 print;
#X obj 588 613 m_scale 0 16382 -8191 8191;
#X obj 8 70 bendout;
#X obj 8 46 0;
#X msg 550 462 tempo 1;
#X obj 690 669 spigot;
#X obj 565 521 tgl 15 0 empty empty empty 17 7 0 10 -262144 -1 -1 1
1;
#X obj 501 493 loadbang;
#X obj 565 486 inlet;
#X obj 618 526 sel 0;
#X obj 652 580 0;
#X obj 58 603 makenote;
#X obj 1 609 inlet;
#X obj 643 234 t b b b b;
#X obj 287 25 t b b b b;
#X floatatom 133 140 5 0 0 0 - - -;
#X obj 776 123 inlet;
#X msg 349 332 add \$1;
#X msg 539 364 print;
#X msg 385 367 add \$1;
#X connect 0 0 40 0;
#X connect 0 1 40 1;
#X connect 0 2 4 0;
#X connect 0 2 20 0;
#X connect 1 0 4 0;
#X connect 1 0 3 0;
#X connect 1 0 14 0;
#X connect 2 0 40 2;
#X connect 4 0 2 0;
#X connect 4 0 126 0;
#X connect 5 0 3 0;
#X connect 5 0 23 0;
#X connect 5 0 34 0;
#X connect 7 0 8 0;
#X connect 7 1 8 1;
#X connect 8 0 9 0;
#X connect 9 0 38 0;
#X connect 10 0 18 0;
#X connect 11 1 12 0;
#X connect 12 0 39 0;
#X connect 13 0 10 0;
#X connect 14 0 16 0;
#X connect 15 0 13 0;
#X connect 16 0 10 0;
#X connect 16 0 44 0;
#X connect 17 0 68 0;
#X connect 17 1 147 1;
#X connect 18 0 147 2;
#X connect 19 0 24 0;
#X connect 20 0 21 0;
#X connect 21 0 19 0;
#X connect 22 0 20 2;
#X connect 22 0 26 0;
#X connect 23 0 22 0;
#X connect 24 0 25 1;
#X connect 24 0 42 0;
#X connect 24 0 75 0;
#X connect 25 0 5 0;
#X connect 25 0 36 0;
#X connect 26 0 47 0;
#X connect 27 0 26 0;
#X connect 28 0 25 0;
#X connect 29 0 37 0;
#X connect 29 0 139 0;
#X connect 29 0 150 0;
#X connect 30 0 28 0;
#X connect 31 0 46 0;
#X connect 31 0 33 0;
#X connect 31 0 125 0;
#X connect 32 0 28 0;
#X connect 33 0 25 0;
#X connect 33 0 5 0;
#X connect 34 0 10 0;
#X connect 34 0 119 0;
#X connect 35 0 3 0;
#X connect 36 0 35 1;
#X connect 36 0 38 1;
#X connect 36 0 39 1;
#X connect 37 0 35 1;
#X connect 37 0 38 1;
#X connect 37 0 39 1;
#X connect 38 0 3 0;
#X connect 39 0 10 0;
#X connect 40 3 7 0;
#X connect 40 4 7 1;
#X connect 40 5 66 1;
#X connect 40 6 11 0;
#X connect 40 8 66 0;
#X connect 41 0 24 0;
#X connect 42 0 41 0;
#X connect 43 0 41 0;
#X connect 44 0 43 0;
#X connect 44 0 118 0;
#X connect 45 0 47 1;
#X connect 46 0 47 1;
#X connect 47 0 19 1;
#X connect 48 0 41 0;
#X connect 49 0 32 0;
#X connect 50 0 31 0;
#X connect 51 0 29 0;
#X connect 52 0 94 0;
#X connect 52 0 149 0;
#X connect 53 0 95 0;
#X connect 54 0 41 0;
#X connect 54 0 10 0;
#X connect 54 0 3 0;
#X connect 54 0 117 0;
#X connect 55 0 56 0;
#X connect 56 0 54 0;
#X connect 57 0 10 0;
#X connect 57 0 41 0;
#X connect 57 0 3 0;
#X connect 58 0 59 0;
#X connect 59 0 57 0;
#X connect 59 0 28 0;
#X connect 60 0 61 0;
#X connect 61 0 140 0;
#X connect 62 0 63 0;
#X connect 63 0 64 1;
#X connect 64 0 17 0;
#X connect 65 0 3 0;
#X connect 66 0 93 0;
#X connect 66 0 92 0;
#X connect 67 0 35 0;
#X connect 68 0 69 0;
#X connect 69 0 78 1;
#X connect 70 0 68 1;
#X connect 70 0 71 0;
#X connect 71 0 72 0;
#X connect 73 0 70 0;
#X connect 74 0 63 0;
#X connect 74 0 83 0;
#X connect 76 0 77 1;
#X connect 77 0 147 0;
#X connect 78 0 147 0;
#X connect 78 1 77 0;
#X connect 79 0 80 0;
#X connect 80 0 78 0;
#X connect 81 0 79 0;
#X connect 82 0 76 0;
#X connect 83 0 78 0;
#X connect 84 0 10 0;
#X connect 85 0 41 0;
#X connect 86 0 3 0;
#X connect 87 0 10 0;
#X connect 88 0 3 0;
#X connect 89 0 41 0;
#X connect 90 0 15 0;
#X connect 90 0 64 0;
#X connect 91 0 92 1;
#X connect 92 0 67 0;
#X connect 93 0 91 0;
#X connect 96 0 102 0;
#X connect 96 0 103 0;
#X connect 96 0 104 0;
#X connect 96 0 132 0;
#X connect 97 0 96 1;
#X connect 98 0 97 0;
#X connect 99 0 105 0;
#X connect 100 0 89 0;
#X connect 101 0 87 0;
#X connect 102 0 85 0;
#X connect 103 0 84 0;
#X connect 104 0 86 0;
#X connect 105 0 106 0;
#X connect 106 0 96 0;
#X connect 107 0 100 0;
#X connect 107 0 113 0;
#X connect 107 0 101 0;
#X connect 107 0 134 0;
#X connect 108 0 107 1;
#X connect 109 0 108 0;
#X connect 110 0 111 0;
#X connect 111 0 107 0;
#X connect 112 0 110 0;
#X connect 113 0 88 0;
#X connect 114 0 116 0;
#X connect 114 0 137 0;
#X connect 115 0 121 2;
#X connect 116 0 115 0;
#X connect 116 1 115 1;
#X connect 118 0 117 0;
#X connect 119 0 117 0;
#X connect 119 0 120 0;
#X connect 120 0 117 0;
#X connect 121 0 124 0;
#X connect 122 0 123 0;
#X connect 123 0 121 1;
#X connect 124 0 117 0;
#X connect 125 0 120 0;
#X connect 125 1 119 0;
#X connect 126 0 115 0;
#X connect 126 0 129 0;
#X connect 127 0 141 0;
#X connect 128 0 130 0;
#X connect 129 0 128 0;
#X connect 130 0 117 0;
#X connect 131 0 117 0;
#X connect 132 0 131 0;
#X connect 133 0 117 0;
#X connect 134 0 133 0;
#X connect 136 0 117 0;
#X connect 137 0 121 0;
#X connect 139 0 138 0;
#X connect 140 0 10 0;
#X connect 140 0 3 0;
#X connect 141 0 135 0;
#X connect 142 0 145 0;
#X connect 142 0 141 1;
#X connect 143 0 142 0;
#X connect 143 0 79 0;
#X connect 144 0 142 0;
#X connect 145 0 146 0;
#X connect 146 0 135 0;
#X connect 147 0 6 0;
#X connect 147 1 6 1;
#X connect 148 0 6 2;
#X connect 149 0 59 0;
#X connect 149 1 25 0;
#X connect 149 2 48 0;
#X connect 149 3 45 0;
#X connect 150 0 30 0;
#X connect 150 1 27 0;
#X connect 150 2 1 0;
#X connect 150 3 22 0;
#X connect 151 0 25 1;
#X connect 151 0 43 0;
#X connect 151 0 155 0;
#X connect 152 0 151 0;
#X connect 154 0 41 0;
#X connect 155 0 41 0;
