#N canvas 272 39 548 342 10;
#X text -518 239 outlet: loop length in milliseconds;
#X text -520 9 inlets from left to right:;
#X obj -516 221 midiseq - - - - - - - - - - - - - - - - - - -;
#X text -520 25 1 noteout channel (float) \; 2 mute notes (toggle or
0/1) \; 3 stop at end of loop (bang) \; 4 play loop (bang) \; 5 arm
record (bang) \; 6 rewind and stop (bang) \; 7 clear loop (bang) \;
8 transpose pitch (float) \; 9 constrain to scale (takes message -
see pd scales subpatch) \; 10 toggle constrain to scale (toggle or
0/1) \; 11 set tempo of notes in qlist (currently loop duration remains
the same - send 'tempo [float] message) \; 12 toggle pitchbend (toggle
or 0/1) \; 13 write file (path/to/filename in message) \; 14 read file
(path/to/filename in message) \; 15 change loop length (ms \, takes
float);
