#N canvas 533 260 491 508 10;
#X obj 58 21 inlet;
#X obj 127 459 outlet;
#X obj 127 392 pack f f f;
#X obj 127 163 unpack f f;
#X obj 127 421 prepend /led;
#X obj 263 201 until;
#X obj 263 246 i 0;
#X obj 293 246 + 1;
#X obj 263 179 i 1;
#X obj 303 201 sel 256;
#X obj 263 149 t b b;
#X msg 293 223 0;
#X obj 263 23 inlet;
#X obj 127 314 t f f;
#X obj 157 367 +;
#X obj 127 367 +;
#X obj 127 339 mod;
#X obj 157 339 div;
#X obj 58 52 route coords;
#N canvas 0 22 450 300 unpack-coords 0;
#X obj 33 19 inlet;
#X obj 33 53 unpack f f f f;
#X obj 33 82 s \$0-x;
#X obj 60 102 s \$0-y;
#X obj 87 82 s \$0-xn;
#X obj 114 102 s \$0-yn;
#X connect 0 0 1 0;
#X connect 1 0 2 0;
#X connect 1 1 3 0;
#X connect 1 2 4 0;
#X connect 1 3 5 0;
#X restore 77 142 pd unpack-coords;
#X obj 58 97 del 20;
#X obj 58 119 s \$0-redraw;
#X obj 292 403 table \$0-values 512;
#N canvas 0 22 343 201 load-coords 0;
#X obj 5 95 i \$1;
#X obj 38 95 i \$2;
#X obj 5 15 loadbang;
#X obj 5 72 t b b b b;
#X obj 71 95 i \$3;
#X obj 104 95 i \$4;
#X obj 5 118 s \$0-x;
#X obj 38 138 s \$0-y;
#X obj 71 118 s \$0-xn;
#X obj 104 138 s \$0-yn;
#X obj 174 118 *;
#X obj 174 138 s \$0-l;
#X msg 147 41 bang;
#X connect 0 0 6 0;
#X connect 1 0 7 0;
#X connect 2 0 3 0;
#X connect 3 0 0 0;
#X connect 3 1 1 0;
#X connect 3 2 4 0;
#X connect 3 3 5 0;
#X connect 4 0 8 0;
#X connect 4 0 10 0;
#X connect 5 0 9 0;
#X connect 5 0 10 1;
#X connect 10 0 11 0;
#X connect 12 0 3 0;
#X restore 136 20 pd load-coords;
#X obj 38 351 r \$0-x;
#X obj 81 351 r \$0-y;
#X obj 186 323 r \$0-xn;
#X obj 304 149 r \$0-l;
#X obj 134 202 swap;
#X obj 134 267 tabwrite \$0-values;
#X obj 307 324 tabread \$0-values;
#X obj 263 110 t b b;
#X obj 326 110 t b b;
#X msg 290 128 0;
#X msg 353 128 1;
#X obj 340 286 == 1;
#X obj 307 304 spigot;
#X obj 263 267 t f f;
#X obj 58 73 t b l b;
#X obj 263 49 route clear redraw;
#X connect 0 0 18 0;
#X connect 2 0 4 0;
#X connect 3 0 13 0;
#X connect 3 0 28 0;
#X connect 3 1 2 2;
#X connect 3 1 28 1;
#X connect 4 0 1 0;
#X connect 5 0 6 0;
#X connect 6 0 7 0;
#X connect 6 0 9 0;
#X connect 6 0 37 0;
#X connect 7 0 6 1;
#X connect 8 0 5 0;
#X connect 9 0 5 1;
#X connect 10 0 8 0;
#X connect 10 1 11 0;
#X connect 11 0 6 1;
#X connect 11 0 2 2;
#X connect 12 0 39 0;
#X connect 13 0 16 0;
#X connect 13 1 17 0;
#X connect 14 0 2 1;
#X connect 15 0 2 0;
#X connect 16 0 15 0;
#X connect 17 0 14 0;
#X connect 18 0 38 0;
#X connect 18 1 3 0;
#X connect 20 0 21 0;
#X connect 24 0 15 1;
#X connect 25 0 14 1;
#X connect 26 0 17 1;
#X connect 26 0 16 1;
#X connect 27 0 8 1;
#X connect 28 0 29 0;
#X connect 28 1 29 1;
#X connect 30 0 2 2;
#X connect 31 0 10 0;
#X connect 31 1 33 0;
#X connect 32 0 10 0;
#X connect 32 1 34 0;
#X connect 33 0 35 0;
#X connect 34 0 35 0;
#X connect 35 0 36 1;
#X connect 36 0 30 0;
#X connect 37 0 13 0;
#X connect 37 1 36 0;
#X connect 38 0 20 0;
#X connect 38 0 32 0;
#X connect 38 1 19 0;
#X connect 38 2 31 0;
#X connect 39 0 31 0;
#X connect 39 1 32 0;
