#N canvas 238 156 702 305 10;
#X obj 21 15 inlet;
#X obj 24 245 outlet;
#X obj 335 11 inlet;
#X obj 24 219 r \$0-led-blink;
#X obj 261 172 * \$4;
#X obj 261 151 \$3;
#X obj 479 85 s \$0-led-blink-timing;
#X obj 170 107 loadbang;
#N canvas 610 415 414 353 make-subs 0;
#X obj 27 130 i 0;
#X obj 27 31 t b b;
#X obj 27 98 until;
#X obj 56 130 + 1;
#X obj 27 154 sel 256;
#X obj 27 69 i;
#X obj 66 252 * 30;
#X obj 66 272 pack f \$0 f f;
#X obj 111 252 + \$1;
#X obj 141 252 + \$2;
#X obj 111 233 mod \$3;
#X obj 155 233 div \$3;
#X obj 66 200 t f f f;
#X msg 72 96 0;
#X obj 27 10 inlet;
#X obj 104 46 r \$0-length;
#X obj 132 160 r \$0-x;
#X obj 162 181 r \$0-y;
#X obj 188 204 r \$0-xn;
#X obj 119 85 i \$0;
#X msg 66 294 \; pd-subblink-\$2 obj 10 \$1 puma.led.blink.sub \$2
\$3 \$4 \;;
#X msg 119 107 \; pd-subblink-\$1 clear \;;
#X connect 0 0 3 0;
#X connect 0 0 4 0;
#X connect 1 0 5 0;
#X connect 1 1 13 0;
#X connect 1 1 19 0;
#X connect 2 0 0 0;
#X connect 3 0 0 1;
#X connect 4 0 2 1;
#X connect 4 1 12 0;
#X connect 5 0 2 0;
#X connect 6 0 7 0;
#X connect 7 0 20 0;
#X connect 8 0 7 2;
#X connect 9 0 7 3;
#X connect 10 0 8 0;
#X connect 11 0 9 0;
#X connect 12 0 6 0;
#X connect 12 1 10 0;
#X connect 12 2 11 0;
#X connect 13 0 0 1;
#X connect 14 0 1 0;
#X connect 15 0 5 1;
#X connect 16 0 8 1;
#X connect 17 0 9 1;
#X connect 18 0 11 1;
#X connect 18 0 10 1;
#X connect 19 0 21 0;
#X restore 170 170 pd make-subs;
#X obj 261 194 s \$0-length;
#N canvas 57 230 318 375 receive-values 0;
#X obj 21 101 t f f;
#X obj 48 142 <;
#X obj 21 168 spigot;
#X obj 46 260 + \$1;
#X obj 78 260 + \$2;
#X obj 46 241 mod \$3;
#X obj 92 241 div \$3;
#X obj 21 218 t b f f;
#X obj 68 111 r \$0-length;
#X obj 21 28 inlet;
#X obj 21 54 unpack f f;
#X obj 73 178 r \$0-x;
#X obj 105 199 r \$0-y;
#X obj 131 220 r \$0-xn;
#X obj 21 280 pack \$0 f f f;
#X msg 21 309 \; \$1-\$2-\$3-led-blink \$4 \;;
#X obj 178 112 swap;
#X obj 127 28 r \$0-redraw-values;
#X obj 127 53 unpack f f;
#X obj 178 141 tabwrite \$0-states;
#X connect 0 0 2 0;
#X connect 0 1 1 0;
#X connect 1 0 2 1;
#X connect 2 0 7 0;
#X connect 3 0 14 1;
#X connect 4 0 14 2;
#X connect 5 0 3 0;
#X connect 6 0 4 0;
#X connect 7 0 14 0;
#X connect 7 1 5 0;
#X connect 7 2 6 0;
#X connect 8 0 1 1;
#X connect 9 0 10 0;
#X connect 10 0 0 0;
#X connect 10 0 16 0;
#X connect 10 1 14 3;
#X connect 10 1 16 1;
#X connect 11 0 3 1;
#X connect 12 0 4 1;
#X connect 13 0 6 1;
#X connect 13 0 5 1;
#X connect 14 0 15 0;
#X connect 16 0 19 0;
#X connect 16 1 19 1;
#X connect 17 0 18 0;
#X connect 18 0 0 0;
#X connect 18 1 14 3;
#X restore 90 61 pd receive-values;
#N canvas 0 22 341 532 clear 0;
#X obj 27 200 i 0;
#X obj 27 111 t b b;
#X obj 27 168 until;
#X obj 56 200 + 1;
#X obj 27 224 sel 256;
#X obj 27 139 i;
#X obj 91 429 + \$1;
#X obj 121 429 + \$2;
#X obj 91 410 mod \$3;
#X obj 135 410 div \$3;
#X msg 72 168 0;
#X obj 27 10 inlet;
#X obj 73 42 r \$0-length;
#X msg 66 472 \; \$1-\$2-\$3-led-blink \$4 \;;
#X obj 66 449 pack \$0 f f 0;
#X obj 66 377 t b f f;
#X obj 67 10 r \$0-clear;
#X obj 112 345 r \$0-x;
#X obj 142 366 r \$0-y;
#X obj 168 387 r \$0-xn;
#X obj 195 100 i \$0;
#X msg 195 124 \; \$1-states const 0 \;;
#X obj 195 79 t b;
#X obj 66 274 tabread \$0-states;
#X obj 66 294 sel 0;
#X obj 66 348 f;
#X obj 66 255 t f f;
#X obj 66 318 t b;
#X obj 168 10 r \$0-reset;
#X obj 168 43 t b b;
#X connect 0 0 3 0;
#X connect 0 0 4 0;
#X connect 1 0 5 0;
#X connect 1 1 10 0;
#X connect 2 0 0 0;
#X connect 3 0 0 1;
#X connect 4 0 2 1;
#X connect 4 1 26 0;
#X connect 5 0 2 0;
#X connect 6 0 14 1;
#X connect 7 0 14 2;
#X connect 8 0 6 0;
#X connect 9 0 7 0;
#X connect 10 0 0 1;
#X connect 11 0 1 0;
#X connect 12 0 5 1;
#X connect 14 0 13 0;
#X connect 15 0 14 0;
#X connect 15 1 8 0;
#X connect 15 2 9 0;
#X connect 16 0 1 0;
#X connect 17 0 6 1;
#X connect 18 0 7 1;
#X connect 19 0 9 1;
#X connect 19 0 8 1;
#X connect 20 0 21 0;
#X connect 22 0 20 0;
#X connect 23 0 24 0;
#X connect 24 1 27 0;
#X connect 25 0 15 0;
#X connect 26 0 23 0;
#X connect 26 1 25 1;
#X connect 27 0 25 0;
#X connect 28 0 29 0;
#X connect 29 0 22 0;
#X connect 29 1 1 0;
#X restore 335 92 pd clear;
#X obj 21 37 route coords;
#N canvas 0 22 450 300 unpack-coords 0;
#X obj 33 19 inlet;
#X obj 33 53 unpack f f f f;
#X obj 33 82 s \$0-x;
#X obj 60 102 s \$0-y;
#X obj 87 82 s \$0-xn;
#X obj 114 102 s \$0-yn;
#X connect 0 0 1 0;
#X connect 1 0 2 0;
#X connect 1 1 3 0;
#X connect 1 2 4 0;
#X connect 1 3 5 0;
#X restore 55 127 pd unpack-coords;
#X obj 72 82 s \$0-clear;
#X obj 170 132 t b b;
#X obj 21 82 del 20;
#X obj 276 129 r \$0-xn;
#X obj 291 151 r \$0-yn;
#X obj 21 104 s \$0-redraw;
#X obj 21 58 t b b l b;
#N canvas 0 22 474 382 subblink-\$0 0;
#X obj 10 0 puma.led.blink.sub 1007 1 3;
#X obj 10 30 puma.led.blink.sub 1007 2 3;
#X obj 10 60 puma.led.blink.sub 1007 3 3;
#X obj 10 90 puma.led.blink.sub 1007 1 4;
#X obj 10 120 puma.led.blink.sub 1007 2 4;
#X obj 10 150 puma.led.blink.sub 1007 3 4;
#X obj 10 180 puma.led.blink.sub 1007 1 5;
#X obj 10 210 puma.led.blink.sub 1007 2 5;
#X obj 10 240 puma.led.blink.sub 1007 3 5;
#X obj 10 270 puma.led.blink.sub 1007 1 6;
#X obj 10 300 puma.led.blink.sub 1007 2 6;
#X obj 10 330 puma.led.blink.sub 1007 3 6;
#X restore 170 194 pd subblink-\$0;
#X obj 392 110 s \$0-redraw;
#X obj 335 40 route clear redraw reset;
#X obj 476 128 s \$0-reset;
#X obj 486 223 table \$0-states 512;
#N canvas 551 188 367 375 redraw 0;
#X obj 66 336 s \$0-redraw-values;
#X obj 66 305 pack f f;
#X obj 44 130 i 0;
#X obj 44 98 until;
#X obj 73 130 + 1;
#X obj 44 154 sel 256;
#X obj 44 69 i;
#X msg 89 96 0;
#X obj 121 46 r \$0-length;
#X obj 44 31 t b b;
#X obj 83 174 t f f;
#X obj 64 204 tabread \$0-states;
#X obj 64 234 sel 0;
#X obj 66 284 f;
#X obj 91 255 t b f;
#X obj 44 7 inlet;
#X connect 1 0 0 0;
#X connect 2 0 4 0;
#X connect 2 0 5 0;
#X connect 3 0 2 0;
#X connect 4 0 2 1;
#X connect 5 0 3 1;
#X connect 5 1 10 0;
#X connect 6 0 3 0;
#X connect 7 0 2 1;
#X connect 8 0 6 1;
#X connect 9 0 6 0;
#X connect 9 1 7 0;
#X connect 10 0 11 0;
#X connect 10 1 13 1;
#X connect 11 0 12 0;
#X connect 12 1 14 0;
#X connect 13 0 1 0;
#X connect 14 0 13 0;
#X connect 14 1 1 1;
#X connect 15 0 9 0;
#X restore 394 202 pd redraw;
#X obj 394 178 r \$0-redraw;
#X connect 0 0 12 0;
#X connect 2 0 23 0;
#X connect 3 0 1 0;
#X connect 4 0 9 0;
#X connect 5 0 4 0;
#X connect 7 0 15 0;
#X connect 12 0 20 0;
#X connect 12 1 10 0;
#X connect 15 0 8 0;
#X connect 15 1 5 0;
#X connect 16 0 19 0;
#X connect 17 0 5 1;
#X connect 18 0 4 1;
#X connect 20 0 16 0;
#X connect 20 1 15 0;
#X connect 20 2 13 0;
#X connect 20 3 14 0;
#X connect 23 0 11 0;
#X connect 23 1 22 0;
#X connect 23 2 24 0;
#X connect 23 3 6 0;
#X connect 27 0 26 0;
