#N canvas 201 221 677 392 10;
#N canvas 340 175 487 552 monome.connect 0;
#X obj 109 9 inlet;
#X obj 122 488 outlet;
#X msg 149 211 disconnect;
#X obj 109 48 route 1 0;
#X msg 109 231 connect \$1 \$2;
#X msg 198 309 \; pd-dumposc clear;
#X obj 180 376 pack \$0 f;
#X obj 123 262 t b b;
#X obj 149 187 del 300;
#X obj 149 75 t b b;
#X obj 109 119 list prepend;
#X msg 180 403 \; pd-dumposc obj 10 10 udpreceive \$2 \; pd-dumposc
obj 10 40 send \$1-dumposc \; pd-dumposc connect 0 0 1 0 \;;
#X msg 204 117 /clear;
#X obj 204 142 outlet;
#X obj 231 355 r \$0-monome-port-listen-ctrl;
#X connect 0 0 3 0;
#X connect 2 0 1 0;
#X connect 2 0 5 0;
#X connect 3 0 10 0;
#X connect 3 1 9 0;
#X connect 4 0 1 0;
#X connect 4 0 7 0;
#X connect 6 0 11 0;
#X connect 7 0 6 0;
#X connect 7 1 5 0;
#X connect 8 0 2 0;
#X connect 9 0 8 0;
#X connect 9 1 12 0;
#X connect 10 0 4 0;
#X connect 12 0 13 0;
#X connect 14 0 6 1;
#X restore 18 139 pd monome.connect;
#X obj 117 209 list prepend send;
#X obj 117 241 list trim;
#N canvas 0 22 221 103 dumposc 0;
#X obj 10 10 udpreceive 8000;
#X obj 10 40 send 2627-dumposc;
#X connect 0 0 1 0;
#X restore 508 75 pd dumposc;
#X obj 508 107 r \$0-dumposc;
#N canvas 4 639 693 401 connect_ctrl 0;
#X msg 47 240 /connect 0;
#X obj 22 112 route 1 0;
#X obj 429 19 loadbang;
#X obj 47 218 bang;
#X obj 22 140 list prepend /connect 1;
#X obj 22 167 list trim;
#X msg 444 78 set localhost;
#X obj 254 22 inlet;
#X obj 254 75 prepend symbol;
#X obj 254 47 route ip send listen prefix;
#X obj 429 44 t b b b b b b b b;
#X msg 534 198 set /box;
#X obj 384 195 prepend symbol;
#X obj 22 22 r \$0-monome-connect-ctrl;
#X obj 79 62 r \$0-monome-port-send-ctrl;
#X obj 429 98 s \$0-monome-host-ctrl-r;
#X obj 459 138 s \$0-monome-port-send-ctrl-r;
#X obj 489 178 s \$0-monome-port-listen-ctrl-r;
#X obj 519 218 s \$0-monome-prefix-ctrl-r;
#X obj 22 263 outlet;
#X obj 50 42 r \$0-monome-host-ctrl;
#X obj 22 82 pack f s f;
#X msg 504 158 set 8000;
#X msg 473 118 set 8080;
#X connect 0 0 19 0;
#X connect 1 0 4 0;
#X connect 1 1 3 0;
#X connect 2 0 10 0;
#X connect 3 0 0 0;
#X connect 4 0 5 0;
#X connect 5 0 19 0;
#X connect 6 0 15 0;
#X connect 7 0 9 0;
#X connect 8 0 15 0;
#X connect 9 0 8 0;
#X connect 9 1 16 0;
#X connect 9 2 17 0;
#X connect 9 3 12 0;
#X connect 10 0 15 0;
#X connect 10 1 6 0;
#X connect 10 2 16 0;
#X connect 10 3 23 0;
#X connect 10 4 17 0;
#X connect 10 5 22 0;
#X connect 10 6 18 0;
#X connect 10 7 11 0;
#X connect 11 0 18 0;
#X connect 12 0 18 0;
#X connect 13 0 21 0;
#X connect 14 0 21 2;
#X connect 20 0 21 1;
#X connect 21 0 1 0;
#X connect 22 0 17 0;
#X connect 23 0 16 0;
#X restore 247 76 pd connect_ctrl;
#X obj 508 293 s monome.press;
#X obj 18 29 r monome.led;
#X obj 508 259 routeOSC /press;
#X obj 117 274 packOSC;
#X obj 508 136 unpackOSC;
#X obj 117 308 udpsend;
#N canvas 231 269 711 420 receive-prefix 0;
#X obj 10 10 receive 2627-to-prefix;
#X obj 10 40 routeOSC /box;
#X obj 10 70 send 2627-from-prefix;
#X connect 0 0 1 0;
#X connect 1 0 2 0;
#X restore 508 196 pd receive-prefix;
#N canvas 0 0 450 300 prefix-ctrl 0;
#X obj 72 47 t a b;
#X msg 99 79 \; pd-receive-prefix clear;
#X obj 72 126 pack s \$0;
#X msg 72 153 \; pd-receive-prefix obj 10 10 receive \$2-to-prefix
\; pd-receive-prefix obj 10 40 routeOSC \$1 \; pd-receive-prefix obj
10 70 send \$2-from-prefix \; pd-receive-prefix connect 0 0 1 0 \;
pd-receive-prefix connect 1 0 2 0 \;;
#X obj 72 21 r \$0-monome-prefix-ctrl;
#X connect 0 0 2 0;
#X connect 0 1 1 0;
#X connect 2 0 3 0;
#X connect 4 0 0 0;
#X restore 254 194 pd prefix-ctrl;
#X obj 508 166 s \$0-to-prefix;
#X obj 508 226 r \$0-from-prefix;
#X obj 18 109 routeOSC /connect;
#X symbolatom 167 2 15 0 0 0 host #0-monome-host-ctrl-r #0-monome-host-ctrl
;
#X floatatom 293 2 5 0 0 0 send #0-monome-port-send-ctrl-r #0-monome-port-send-ctrl
;
#X floatatom 376 2 5 0 0 0 listen #0-monome-port-listen-ctrl-r #0-monome-port-listen-ctrl
;
#X obj 120 2 tgl 16 0 \$0-monome-connect-ctrl \$0-monome-connect-ctrl-r
empty -85 8 1 8 -228856 -1 -1 1 1;
#X symbolatom 456 2 6 0 0 0 prefix #0-monome-prefix-ctrl-r #0-monome-prefix-ctrl
;
#X obj 247 45 inlet messages;
#X obj 204 140 r \$0-monome-prefix-ctrl;
#X obj 18 73 spigot;
#X obj 51 50 r \$0-monome-connect-ctrl;
#X text 346 196 creates routeOSC in it -->;
#X text 344 76 creates udpreceive in it->;
#X obj 120 27 loadbang;
#X obj 117 177 OSCprepend /box;
#X msg 394 44 prefix /helix;
#X connect 0 0 11 0;
#X connect 0 1 29 0;
#X connect 1 0 2 0;
#X connect 2 0 9 0;
#X connect 4 0 10 0;
#X connect 5 0 16 0;
#X connect 7 0 24 0;
#X connect 8 0 6 0;
#X connect 9 0 11 0;
#X connect 10 0 14 0;
#X connect 15 0 8 0;
#X connect 16 0 0 0;
#X connect 16 1 29 0;
#X connect 22 0 5 0;
#X connect 23 0 29 1;
#X connect 24 0 16 0;
#X connect 25 0 24 1;
#X connect 28 0 20 0;
#X connect 28 0 30 0;
#X connect 29 0 1 0;
#X connect 30 0 5 0;
#X coords 0 -1 1 1 500 20 2 10 0;
