#N canvas 0 22 541 553 10;
#X obj 93 115 inlet;
#X obj 69 476 outlet;
#X obj 321 247 +;
#X obj 355 158 inlet;
#X obj 321 282 % 12;
#X text 327 342 Todo: use creb's;
#X text 325 389 instead of %;
#X obj 137 201 list append;
#X obj 330 364 fmod 12;
#N canvas 416 176 608 592 listop 0;
#X msg 313 297 list;
#X obj 120 52 inlet;
#X obj 478 467 outlet;
#X obj 502 90 inlet;
#X obj 92 465 outlet;
#X obj 218 327 list prepend;
#X obj 485 229 drip;
#X obj 114 424 demultiplex 0 1;
#X msg 187 260 1;
#X msg 127 288 0;
#X obj 100 133 t b b a b b;
#X connect 0 0 5 1;
#X connect 1 0 10 0;
#X connect 3 0 5 0;
#X connect 5 0 7 0;
#X connect 6 0 2 0;
#X connect 7 0 4 0;
#X connect 7 1 5 1;
#X connect 8 0 7 1;
#X connect 9 0 7 1;
#X connect 10 0 5 0;
#X connect 10 1 9 0;
#X connect 10 2 6 0;
#X connect 10 3 0 0;
#X connect 10 4 8 0;
#X restore 72 250 pd listop;
#X connect 0 0 7 0;
#X connect 2 0 4 0;
#X connect 3 0 2 1;
#X connect 4 0 9 1;
#X connect 7 0 9 0;
#X connect 9 0 1 0;
#X connect 9 1 2 0;
